<svg width="18" height="14" viewBox="0 0 18 14" fill="none" xmlns="http://www.w3.org/2000/svg">
<path d="M9.02223 2.48522C12.1104 2.48522 14.8644 4.22078 16.2089 6.9667C14.8644 9.71263 12.1185 11.4482 9.02223 11.4482C5.92593 11.4482 3.18001 9.71263 1.83556 6.9667C3.18001 4.22078 5.93408 2.48522 9.02223 2.48522ZM9.02223 0.855591C4.94815 0.855591 1.46889 3.38966 0.0592651 6.9667C1.46889 10.5437 4.94815 13.0778 9.02223 13.0778C13.0963 13.0778 16.5756 10.5437 17.9852 6.9667C16.5756 3.38966 13.0963 0.855591 9.02223 0.855591ZM9.02223 4.92966C10.1467 4.92966 11.0593 5.84226 11.0593 6.9667C11.0593 8.09115 10.1467 9.00374 9.02223 9.00374C7.89778 9.00374 6.98519 8.09115 6.98519 6.9667C6.98519 5.84226 7.89778 4.92966 9.02223 4.92966ZM9.02223 3.30004C7.00149 3.30004 5.35556 4.94596 5.35556 6.9667C5.35556 8.98744 7.00149 10.6334 9.02223 10.6334C11.043 10.6334 12.6889 8.98744 12.6889 6.9667C12.6889 4.94596 11.043 3.30004 9.02223 3.30004Z" fill="#535D6F"/>
</svg>
