<svg width="15" height="12" viewBox="0 0 15 12" fill="none" xmlns="http://www.w3.org/2000/svg">
<path d="M12.4855 0.758656C10.6792 -0.438154 8.44879 0.120357 7.24463 1.49004C6.04047 0.120357 3.81004 -0.444803 2.0038 0.758656C1.04595 1.39695 0.443871 2.47408 0.40282 3.61105C0.307035 6.19084 2.66062 8.25867 6.25257 11.4302L6.32099 11.4901C6.84097 11.9488 7.64146 11.9488 8.16144 11.4834L8.2367 11.4169C11.8286 8.25202 14.1754 6.1842 14.0864 3.6044C14.0454 2.47408 13.4433 1.39695 12.4855 0.758656ZM7.31305 10.4395L7.24463 10.506L7.17622 10.4395C3.91951 7.57382 1.77118 5.67887 1.77118 3.75733C1.77118 2.42754 2.79745 1.4302 4.16582 1.4302C5.21946 1.4302 6.24573 2.08845 6.60834 2.99935H7.88776C8.24354 2.08845 9.26981 1.4302 10.3234 1.4302C11.6918 1.4302 12.7181 2.42754 12.7181 3.75733C12.7181 5.67887 10.5698 7.57382 7.31305 10.4395Z" fill="#535D6F"/>
</svg>
